<svg xmlns="http://www.w3.org/2000/svg" viewBox="0 0 475 250" role="img"><path fill="currentColor" d="M58.1,194.1c7,0,13.6,2.8,18.8,7.2.6.6.6,1.6.2,2.3l-4.7,5c-.6.6-1.4.6-2,0-3.1-2.8-7.4-4.4-11.6-4.4-9.6,0-17.2,8.3-17.2,18s7.6,17.8,17.2,17.8,7.7-1.4,9.2-1.9v-6.7h-6.1c-.9,0-1.6-.6-1.6-1.4v-6.1c0-.9.6-1.6,1.6-1.6h14.6c.6,0,1.4.6,1.4,1.6v19.7c0,.6-.3,1.1-.6,1.3,0,0-8,5-19.3,5s-27.7-12.2-27.7-27.6,12.3-28.2,27.8-28.2h0Z"/><path fill="currentColor" d="M108.3,247.2l24-51.8c.2-.5.6-.9,1.4-.9h.6c.6,0,1.1.3,1.4.9l23.8,51.8c.5,1.1-.2,2-1.4,2h-6.7c-1.3,0-1.7-.5-2.3-1.6l-3.8-8.5h-23l-3.8,8.5c-.3.6-1.1,1.6-2.3,1.6h-6.7c-1.1,0-1.7-1.1-1.2-2h0ZM141.5,230.6l-7.7-16.9h-.2l-7.5,16.9h15.4Z"/><path fill="currentColor" d="M199.1,195.7c0-.6.5-1.3,1.4-1.3h1.3c.6,0,1.1.3,1.4.9l16.9,36.5h.2l16.9-36.5c.2-.5.6-.9,1.4-.9h1.3c.9,0,1.4.5,1.4,1.3l8.9,51.8c.2,1.1-.3,1.7-1.4,1.7h-7c-.6,0-1.4-.6-1.6-1.3l-4.5-29.3h.2l-13.6,30.4c-.2.5-.6.9-1.4.9h-1.4c-.6,0-1.1-.3-1.4-.9l-13.8-30.4h-.3l-4.4,29.4c0,.5-.6,1.3-1.4,1.3h-7c-1.1,0-1.7-.6-1.6-1.7l9.5-51.9h0Z"/><path fill="currentColor" d="M280.4,196.6c0-.9.6-1.6,1.6-1.6h7.2c.9,0,1.6.6,1.6,1.6v50.9c0,.6-.6,1.6-1.6,1.6h-7.2c-.9,0-1.6-.6-1.6-1.6,0,.3,0-50.9,0-50.9Z"/><path fill="currentColor" d="M321,195.8c0-.9.6-1.4,1.6-1.4h1.9l32.1,34h0v-31.8c0-.9.6-1.6,1.6-1.6h7c.9,0,1.6.6,1.6,1.6v51.8c0,.6-.6,1.4-1.6,1.4h-1.9l-32.1-35.4h0v33.2c0,.6-.6,1.6-1.6,1.6h-7c-.9,0-1.6-.6-1.6-1.6v-51.8h0Z"/><path fill="currentColor" d="M424.9,194.1c7,0,13.6,2.8,18.8,7.2.6.6.6,1.6,0,2.3l-4.7,5c-.6.6-1.4.6-2,0-3.1-2.8-7.4-4.4-11.6-4.4-9.6,0-17.2,8.3-17.2,18s7.7,17.7,17.4,17.7,7.7-1.4,9.2-1.9v-6.7h-6.1c-.9,0-1.6-.6-1.6-1.4v-6.1c0-.9.6-1.6,1.6-1.6h14.6c.9,0,1.4.6,1.4,1.6v19.7c0,.6-.3,1.1-.6,1.3,0,0-8,5-19.3,5s-27.7-12.2-27.7-27.6,12.3-28.1,27.8-28.1h0Z"/><path fill="currentColor" d="M194.6 33.4 L190.9 27 L171.3 61 L186.8 88 L206.5 53.9 L194.6 33.4Z"/><path fill="currentColor" d="M151.7 27 L191 27 L190.9 27 L198.3 27 L222 27 L237.5 .1 L136 .1 L151.7 27Z"/><path fill="currentColor" d="M237.5 .1 L253 27 L292.3 27 L272.8 61 L288.3 88 L339 .1 L237.5 .1Z"/><path fill="currentColor" d="M245.3 108.5 L241.7 114.9 L237.9 108.5 L226.1 88 L186.8 88 L202.3 114.9 L241.7 114.9 L222 148.9 L237.5 175.7 L288.3 88 L257.2 88 L245.3 108.5Z"/><path fill="currentColor" d="M231 88 L241.6 106.4 L252.2 88 L284.9 31.3 L219.5 31.3 L198.3 31.3 L208.9 49.7 L211.6 54.3 L245.2 54.3 L228.3 83.4 L231 88Z"/></svg>
