<svg xmlns="http://www.w3.org/2000/svg" viewBox="0 0 85 10" role="img"><path fill="currentColor" d="m0,8.01V0h2.94c.55,0,1.02.05,1.41.15.38.11.71.25.96.44.25.19.42.41.53.68.11.27.16.56.16.9,0,.18-.03.36-.08.52-.05.16-.14.33-.25.46s-.25.27-.42.4-.38.22-.61.31c.53.12.92.34,1.18.63.25.29.38.66.38,1.11,0,.34-.07.66-.19.96-.14.29-.33.55-.57.77-.26.22-.57.38-.94.51-.37.12-.81.18-1.28.18H0ZM1.86,3.36h.97c.2,0,.4-.01.56-.04.16-.03.3-.08.42-.15.11-.07.2-.18.26-.3s.1-.29.1-.48-.03-.36-.07-.48c-.04-.12-.12-.23-.22-.3-.1-.08-.22-.14-.38-.16-.15-.03-.33-.05-.55-.05h-1.09v1.97Zm0,1.24v2h1.31c.25,0,.45-.03.6-.1.15-.07.27-.14.37-.25.08-.1.15-.2.18-.34.03-.12.05-.25.05-.38,0-.15-.01-.27-.05-.4-.04-.12-.11-.22-.19-.3-.1-.08-.22-.14-.37-.19-.15-.04-.34-.07-.59-.07h-1.31v.03ZM7.35,0v7.98h5.15v-1.42h-3.28v-1.9h2.51v-1.37h-2.51v-1.87h3.28V0h-5.15Zm5.68,0v1.48h2.25v6.53h1.86V1.48h2.25V0h-6.37Zm12.86,6.48c-.14.14-.27.23-.41.33-.14.08-.29.16-.45.22-.15.05-.33.1-.52.12-.18.03-.4.04-.63.04-.4,0-.75-.07-1.08-.2-.33-.14-.61-.34-.86-.6-.25-.26-.44-.59-.57-.97s-.2-.82-.2-1.31.07-.92.2-1.3c.14-.4.33-.71.57-.98.25-.27.53-.48.87-.61s.71-.2,1.12-.2c.33,0,.61.04.85.11s.42.15.57.23c.15.08.27.16.37.23s.18.11.25.11c.05,0,.1-.01.14-.04.03-.03.05-.05.08-.1l.36-.49c-.33-.3-.71-.55-1.13-.72-.44-.18-.93-.27-1.49-.27s-1.09.11-1.57.3-.87.46-1.22.82c-.34.36-.6.78-.79,1.27-.18.49-.27,1.04-.27,1.63s.1,1.13.27,1.63.42.92.75,1.27c.31.36.71.63,1.18.82.46.2.98.3,1.54.3.66,0,1.2-.11,1.67-.31.46-.2.85-.51,1.18-.87l-.42-.45s-.1-.07-.15-.07-.12.03-.19.1Zm9.13-2.41c0,.59-.1,1.13-.27,1.63-.19.49-.45.92-.79,1.27-.34.36-.75.63-1.23.82s-1.01.3-1.59.3-1.11-.1-1.59-.3c-.48-.19-.89-.46-1.23-.82s-.6-.78-.79-1.27c-.19-.49-.27-1.04-.27-1.63s.1-1.13.27-1.63c.19-.49.45-.92.79-1.27.34-.36.75-.63,1.23-.83.48-.19,1-.3,1.59-.3s1.11.1,1.59.3c.48.19.89.48,1.23.83s.6.78.79,1.27c.18.49.27,1.04.27,1.63Zm-1.09,0c0-.48-.07-.92-.19-1.3-.14-.38-.31-.71-.56-.97s-.53-.46-.87-.61c-.34-.14-.72-.22-1.15-.22s-.81.07-1.15.22c-.34.14-.64.34-.89.61-.25.26-.44.59-.56.97-.14.38-.19.82-.19,1.3s.07.92.19,1.3c.14.38.31.71.56.97s.53.46.89.61c.34.14.72.2,1.15.2s.81-.07,1.15-.2.64-.34.87-.61c.25-.26.42-.59.56-.97.12-.38.19-.82.19-1.3Zm3.16-3.94h-.55v7.87h.93V2.16c0-.1,0-.18-.01-.27l4.55,5.93c.05.07.11.12.16.15.05.03.12.04.2.04h.53V.14h-.93v5.58c0,.08.01.16.01.26,0,.08,0,.18.01.27L37.46.31s-.05-.07-.08-.1c-.03-.03-.05-.04-.08-.05-.01-.01-.05-.03-.08-.03h-.12Zm12.16.71c-.27-.26-.6-.46-.96-.6-.37-.14-.77-.2-1.2-.2-.4,0-.74.05-1.04.18-.3.11-.56.27-.77.48-.22.2-.37.44-.48.7-.11.26-.16.53-.16.81,0,.34.05.64.16.87.11.23.25.42.42.59.18.15.37.29.6.38s.46.19.7.26c.25.07.46.15.7.22.22.07.42.16.6.26.18.11.31.23.42.38.11.15.16.36.16.59,0,.22-.04.41-.11.59-.07.18-.18.31-.31.45s-.31.23-.51.3-.42.11-.67.11c-.2,0-.38-.01-.55-.05-.16-.04-.31-.1-.44-.15-.14-.05-.25-.12-.34-.19-.1-.07-.18-.14-.26-.19-.08-.07-.15-.11-.2-.15-.07-.04-.12-.05-.16-.05-.05,0-.1.01-.14.04s-.08.05-.11.1l-.31.51c.29.31.64.56,1.07.75.41.18.87.27,1.39.27.42,0,.79-.07,1.12-.19.33-.14.61-.31.83-.53.23-.23.4-.49.52-.79.12-.3.18-.63.18-.97s-.05-.6-.16-.82c-.11-.22-.25-.41-.42-.56s-.38-.29-.6-.38c-.23-.1-.46-.19-.7-.27-.25-.08-.48-.16-.7-.23s-.42-.15-.6-.26c-.18-.1-.31-.22-.42-.37-.11-.15-.16-.33-.16-.55,0-.16.03-.33.1-.48.05-.15.15-.27.27-.38s.27-.19.45-.26c.18-.07.4-.1.63-.1.25,0,.46.03.64.1.18.05.33.14.45.2s.23.14.31.2.15.1.22.1c.05,0,.1-.01.14-.04.04-.03.08-.07.11-.12l.29-.52Zm.81-.71v.9h2.56v6.97h1.07V1.04h2.54V.14h-6.16Zm8.38,4.58v3.28h-1.07V.14h2.23c.49,0,.93.05,1.28.15.37.1.66.25.9.44.23.19.41.42.52.68.11.27.16.57.16.9,0,.27-.04.53-.14.78-.08.25-.22.46-.38.66-.16.19-.37.36-.61.49s-.51.23-.82.3c.14.08.26.2.36.34l2.3,3.13h-.94c-.19,0-.34-.07-.42-.22l-2.05-2.82c-.07-.08-.12-.15-.2-.19-.07-.04-.18-.05-.33-.05h-.78Zm0-.77h1.12c.31,0,.57-.04.82-.11.23-.07.44-.18.59-.31.16-.14.27-.3.36-.49.08-.19.12-.4.12-.63,0-.46-.15-.82-.46-1.07-.31-.23-.77-.36-1.38-.36h-1.16v2.97Zm8.01,3.05c-.26-.11-.48-.27-.66-.46-.18-.2-.31-.44-.41-.71s-.14-.57-.14-.9V.14h-1.07v4.78c0,.45.07.87.22,1.26.15.4.36.72.63,1.01.26.29.6.51.98.67.4.16.83.25,1.31.25s.93-.08,1.31-.25c.38-.16.71-.38.98-.67.26-.29.46-.63.61-1.01s.22-.81.22-1.26V.14h-1.07v4.78c0,.33-.04.63-.14.9s-.23.52-.41.71c-.18.2-.4.36-.66.46-.26.11-.55.16-.87.16s-.63-.05-.86-.16Zm11.23-.52c-.14.14-.27.23-.41.33-.14.08-.29.16-.45.22-.15.05-.33.1-.52.12-.18.03-.4.04-.63.04-.4,0-.75-.07-1.08-.2-.33-.14-.61-.34-.86-.6-.25-.26-.44-.59-.57-.97s-.2-.82-.2-1.31.07-.92.2-1.3c.14-.4.33-.71.57-.98.25-.27.53-.48.87-.61s.71-.2,1.12-.2c.33,0,.61.04.85.11s.42.15.57.23c.15.08.27.16.37.23s.18.11.25.11c.05,0,.1-.01.14-.04.03-.03.05-.05.08-.1l.36-.49c-.33-.3-.71-.55-1.13-.72-.44-.18-.93-.27-1.49-.27s-1.09.11-1.57.3-.87.46-1.22.82c-.34.36-.6.78-.79,1.27-.18.49-.27,1.04-.27,1.63s.1,1.13.27,1.63.42.92.75,1.27c.31.36.71.63,1.18.82.46.2.98.3,1.54.3.66,0,1.2-.11,1.67-.31.46-.2.85-.51,1.18-.87l-.42-.45s-.1-.07-.15-.07c-.07,0-.12.03-.19.1Zm1.16-6.34v.9h2.56v6.97h1.07V1.04h2.54V.14h-6.16Z"/></svg>
