<svg xmlns="http://www.w3.org/2000/svg" viewBox="0 0 50 18" role="img"><path fill="currentColor" d="m32.669 2.93-.026.124-1.51 7.4h4.022l-.025.124-.628 3.042-.018.081h-8.162l.024-.123 2.159-10.566.016-.082h4.148zm-7.251 2.208a4.057 4.057 0 0 0-1.511-1.602 4.379 4.379 0 0 0-2.272-.591h-4.63l-.017.081-2.15 10.537-.026.124h5.992c2.708 0 3.991-2.57 4.413-3.415.434-.87.726-2.055.726-2.95a4.696 4.696 0 0 0-.525-2.184zm-3.252 3.031c-.173 1.237-.804 2.617-1.678 2.862-.145.028-.293.039-.441.032-.226 0-.485-.012-.658-.02h-.039c.156-.76.313-1.537.464-2.29l.032-.16.052-.26.55-2.739h.184c.35 0 .686.013.946.174.525.324.75 1.246.588 2.401zm24.025-5.24h-4.26l-.029.055-1.795 3.35-.163-3.315-.005-.098h-4.394l.018.12 1.624 10.573.014.087H39.818l.03-.049 6.43-10.565.096-.157h-.183zM7.6 0l.234.005c.156.008.312.024.466.049 3.028.621 4.42 3.547 4.775 4.43.304.834.44 1.72.4 2.607a7.386 7.386 0 0 1-1.228 3.83c-1.156 1.77-2.972 2.79-4.982 2.79a5.467 5.467 0 0 1-1.383-.175C3.55 12.898 1.309 10.49.388 8.546c-.699-1.47-.262-3.89.345-4.908.731-1.17 2.252-2.22 3.524-2.866l.251-.124C5.708.218 6.746 0 7.598 0zM.514 6.707c-.694.717.213 2.752 2.028 4.546 1.816 1.794 3.85 2.664 4.544 1.951.694-.717-.214-2.752-2.029-4.546C3.243 6.865 1.208 5.99.514 6.708zM5.8 11.716c.34.331.543.732.457.905-.087.172-.441.053-.782-.278-.342-.332-.543-.736-.452-.911.088-.17.437-.048.777.284zm5.224-8.645c-2.227-.033-3.667 2.42-3.98 4.35-.294 1.796.121 4.541 1.948 4.872 1.43.258 2.465-.47 3.203-1.488 1.884-2.597 1.548-7.695-1.17-7.734zm-.717 7.71c-.02.471-.316.906-.663.975-.346.068-.61-.259-.59-.728.02-.47.316-.907.663-.974.345-.069.61.257.59.728zm-7.271-.114c.314.303.501.68.417.842-.084.162-.408.05-.723-.253-.314-.303-.5-.68-.416-.843.085-.163.407-.05.722.254zm1.107-2.322c.37.356.593.8.493.992-.1.192-.48.057-.852-.298-.371-.356-.592-.8-.493-.992.1-.19.482-.057.852.298zm8.678-.307c-.045.456-.339.856-.658.903-.32.046-.54-.283-.494-.735.045-.452.339-.856.657-.903.318-.047.54.278.495.735zm-1.826-.397c.033.477-.227.95-.582 1.054-.356.105-.672-.199-.71-.677-.036-.477.228-.953.588-1.054.355-.105.67.199.704.677zm-9.592-.157c.335.324.535.726.445.901-.09.175-.434.052-.77-.271C.74 7.79.54 7.387.63 7.213c.091-.173.435-.053.77.271zm7.434-.173c.033.478-.228.95-.583 1.055-.354.104-.67-.199-.704-.677-.034-.479.228-.95.583-1.055.355-.105.67.2.704.677zM4.6.78C2.213 1.869-.188 4.059.96 5.22c.683.692 3.279.724 5.284-.457C7.75 3.88 9.528 2.127 9.309 1.068 8.968-.577 5.413.41 4.599.78zm7.09 3.704c.035.478-.226.95-.582 1.054-.355.105-.67-.199-.704-.676-.034-.478.228-.947.583-1.055.354-.105.67.198.704.677zM5.496 3.95c.205.146.043.477-.367.74s-.9.356-1.1.21c-.201-.147-.043-.477.362-.741.405-.264.9-.356 1.105-.209zm-2.765-.61c.184.117.02.408-.362.647-.382.24-.84.342-1.023.224-.182-.117-.02-.408.362-.648.382-.24.84-.34 1.023-.224zm4.202-.656h.006c.205.147.043.477-.367.741s-.9.355-1.106.208c-.205-.148-.042-.477.367-.741s.9-.355 1.1-.208zM4.096 2.18c.173.111.019.387-.343.616-.363.228-.798.322-.969.21-.17-.11-.019-.385.343-.614.363-.229.796-.327.969-.212zm4.212-.736.005-.001c.205.146.043.478-.367.74-.41.264-.9.355-1.105.209-.207-.146-.043-.478.366-.74.41-.264.9-.355 1.1-.208zM5.43.996c.173.112.02.387-.342.615-.363.229-.796.323-.97.212-.173-.11-.019-.387.344-.614.363-.226.796-.324.968-.213zm3.174 14.877-.07.329h.319l-.068.328h-.32l-.08.401a.315.315 0 0 0-.007.06.093.093 0 0 0 .034.081l.044.019.048.005.215-.03-.133.33a.562.562 0 0 1-.168.057 1.054 1.054 0 0 1-.219.023.628.628 0 0 1-.288-.061.206.206 0 0 1-.124-.125l-.012-.06v-.045l.138-.658H7.69l.067-.328h.225l.051-.234.572-.092zm1.052.329-.255 1.216h-.549l.255-1.216h.55zm.096-.445-.056.27h-.55l.056-.27h.55zm1.605.568a.867.867 0 0 0-.564-.16 1.174 1.174 0 0 0-.692.201.716.716 0 0 0-.316.44.455.455 0 0 0 .17.473.888.888 0 0 0 .57.159c.241.008.48-.062.68-.198.156-.101.268-.26.31-.442a.636.636 0 0 0 .012-.116.442.442 0 0 0-.17-.357zm-.399.477a.363.363 0 0 1-.118.2.365.365 0 0 1-.243.092.292.292 0 0 1-.206-.064.206.206 0 0 1-.07-.159.358.358 0 0 1 .146-.265.394.394 0 0 1 .254-.092.228.228 0 0 1 .173.064.233.233 0 0 1 .064.222v.002zm2.432-.588a.615.615 0 0 0-.31-.069 1.21 1.21 0 0 0-.39.065.739.739 0 0 0-.293.166l.036-.174h-.503l-.255 1.216h.55l.117-.555a.425.425 0 0 1 .153-.24.375.375 0 0 1 .228-.084c.05-.003.1.014.138.046a.173.173 0 0 1 .054.138c0 .02-.003.041-.008.061l-.133.638h.55l.193-.907a.328.328 0 0 0 .006-.064.254.254 0 0 0-.133-.237zm-6.398-.187h.549l.055-.27h-.548l-.056.27zm-2.94.145a.936.936 0 0 1 .442.083.219.219 0 0 1 .125.242l-.194.926c-.316 0-.626.03-.938.03a.797.797 0 0 1-.425-.093.232.232 0 0 1-.112-.263c.027-.137.132-.243.316-.319.158-.054.32-.095.484-.125.171-.034.261-.07.27-.11a.054.054 0 0 0-.023-.062.35.35 0 0 0-.19-.034 1.25 1.25 0 0 0-.24.03 2.746 2.746 0 0 0-.337.092l.11-.305c.234-.054.473-.085.712-.092zm-2.164-.396-.076.366h-.597l-.27 1.276H.327l.27-1.276H0l.075-.366h1.813zm1.003.38.083.006-.04.388a1.118 1.118 0 0 0-.161-.015.413.413 0 0 0-.287.092.431.431 0 0 0-.094.15l-.023.086-.116.555h-.55l.255-1.216h.527l-.027.135a.725.725 0 0 1 .168-.116.58.58 0 0 1 .265-.066zm11.174.092a.33.33 0 0 0-.183.223.32.32 0 0 0-.007.07c0 .107.066.214.2.32.133.107.197.171.193.194-.005.023-.051.054-.139.054a1.161 1.161 0 0 1-.183-.019 3.807 3.807 0 0 1-.266-.057v.346c.16.045.324.068.489.069a1.02 1.02 0 0 0 .475-.098.38.38 0 0 0 .217-.246.262.262 0 0 0 .007-.059c0-.098-.07-.197-.21-.298-.14-.101-.21-.167-.202-.2.007-.033.07-.064.183-.064.117.004.234.02.348.047l.019-.328a2.48 2.48 0 0 0-.464-.05.972.972 0 0 0-.477.096zm-8.05-.066a1.294 1.294 0 0 0-.206-.018 1.635 1.635 0 0 0-.391.045c-.145.033-.28.096-.4.185a.687.687 0 0 0-.269.567.446.446 0 0 0 .175.38.63.63 0 0 0 .386.11.89.89 0 0 0 .28-.044.557.557 0 0 0 .215-.12l-.028.135h.527l.345-1.642h-.55l-.085.402zm-.133.638a.484.484 0 0 1-.144.228.287.287 0 0 1-.184.071.252.252 0 0 1-.173-.065.221.221 0 0 1-.072-.17.26.26 0 0 1 .008-.064.377.377 0 0 1 .158-.252.607.607 0 0 1 .344-.085l.134.008-.071.33zm.816.598h.549l.255-1.216h-.55l-.254 1.216zm32.312-1.246a.933.933 0 0 1 .442.083c.08.036.13.116.128.204a.248.248 0 0 1 0 .043l-.194.926c-.316 0-.626.03-.937.03a.798.798 0 0 1-.426-.093.232.232 0 0 1-.112-.263c.03-.134.132-.244.316-.319.158-.054.32-.096.484-.125.171-.034.261-.071.27-.11a.054.054 0 0 0-.023-.062.35.35 0 0 0-.19-.034c-.08.002-.16.011-.24.03a2.746 2.746 0 0 0-.337.092l.106-.31c.234-.054.473-.085.713-.092zm-1.15-.017.084.007-.039.388a1.14 1.14 0 0 0-.163-.015.413.413 0 0 0-.287.092.427.427 0 0 0-.117.236l-.116.555h-.55l.255-1.216h.527l-.028.135a.745.745 0 0 1 .168-.116.502.502 0 0 1 .265-.066zm-6.463.478a.555.555 0 0 1 .249-.346c.178-.11.385-.165.595-.157a1.9 1.9 0 0 1 .581.091l.034-.388a2.795 2.795 0 0 0-.64-.07 1.863 1.863 0 0 0-.942.22.897.897 0 0 0-.486.8.566.566 0 0 0 .2.456c.171.143.451.215.84.215a4.39 4.39 0 0 0 .819-.077l.192-.909h-.826l-.073.35h.256l-.055.248c-.09.026-.182.04-.275.04a.508.508 0 0 1-.354-.117.353.353 0 0 1-.118-.273v-.034c0-.016 0-.033.003-.049zm10.036-.42a.615.615 0 0 0-.31-.068c-.133 0-.264.023-.39.065a.752.752 0 0 0-.294.166l.037-.174h-.504l-.252 1.216h.55l.117-.555a.394.394 0 0 1 .153-.24.375.375 0 0 1 .228-.084c.05-.003.1.014.139.046a.173.173 0 0 1 .054.138c0 .02-.003.041-.008.061l-.132.634h.55l.192-.907a.334.334 0 0 0 .008-.064.253.253 0 0 0-.138-.233zm4.705.084a.775.775 0 0 0-.49-.135 1.13 1.13 0 0 0-.683.202.722.722 0 0 0-.307.446.626.626 0 0 0-.011.115.465.465 0 0 0 .183.378c.174.12.383.177.593.164.181-.003.361-.026.537-.068l.119-.348c-.161.05-.327.078-.495.085-.234 0-.362-.085-.385-.258h1.03a.904.904 0 0 0 .052-.164.424.424 0 0 0 .011-.093.397.397 0 0 0-.154-.324zm-.384.348h-.48a.257.257 0 0 1 .112-.164.335.335 0 0 1 .191-.06.205.205 0 0 1 .132.04.15.15 0 0 1 .052.126.241.241 0 0 1-.011.058h.004zm-9.32-.39a.932.932 0 0 0-.442-.083c-.24.008-.477.039-.711.092l-.107.31a2.8 2.8 0 0 1 .338-.093c.079-.018.16-.027.24-.03a.35.35 0 0 1 .19.035c.02.013.03.039.022.062-.008.039-.098.076-.27.11-.164.03-.326.071-.484.125-.183.075-.286.185-.315.319a.232.232 0 0 0 .112.263c.13.07.277.101.424.092.313 0 .623-.03.938-.03l.195-.925a.219.219 0 0 0-.13-.246zm-.555.885-.12.028a.63.63 0 0 1-.148.02.202.202 0 0 1-.116-.027.07.07 0 0 1-.03-.071c.014-.06.074-.104.184-.13.097-.022.194-.05.288-.082l-.058.262zm-1.734-.34a.363.363 0 0 1-.124.214.297.297 0 0 1-.19.068.191.191 0 0 1-.13-.046.175.175 0 0 1-.052-.135c0-.02.003-.041.007-.061l.134-.638h-.55l-.183.888a.242.242 0 0 0-.008.053.263.263 0 0 0 .158.234.69.69 0 0 0 .343.08.872.872 0 0 0 .287-.047.603.603 0 0 0 .235-.146l-.031.154h.527l.255-1.216h-.55l-.128.598zm8.556-.927-.07.329h.32l-.068.328h-.32l-.078.401a.315.315 0 0 0-.008.06.093.093 0 0 0 .034.081c.027.018.06.027.092.024.071-.006.143-.02.216-.03l-.134.33a.562.562 0 0 1-.167.057 1.044 1.044 0 0 1-.219.023.642.642 0 0 1-.29-.061.21.21 0 0 1-.135-.186.234.234 0 0 1 0-.044l.138-.658h-.226l.067-.328h.225l.052-.234.571-.092zm1.222.289a.774.774 0 0 1 .49.135c.101.076.16.197.157.324a.489.489 0 0 1-.011.093.891.891 0 0 1-.053.164h-1.032c.023.173.151.258.384.258.168-.007.334-.035.495-.085l-.118.348a2.496 2.496 0 0 1-.537.068.937.937 0 0 1-.593-.164.458.458 0 0 1-.183-.378c0-.039.004-.077.012-.115a.73.73 0 0 1 .306-.446c.2-.14.44-.21.683-.202zm-20.501.093a.932.932 0 0 0-.442-.083c-.24.007-.478.038-.712.092l-.107.31c.11-.038.223-.07.337-.093a1.25 1.25 0 0 1 .24-.03.346.346 0 0 1 .19.035c.02.013.03.039.022.062-.008.039-.098.076-.27.11a3.25 3.25 0 0 0-.482.125c-.184.075-.29.182-.317.319a.232.232 0 0 0 .112.263.8.8 0 0 0 .426.092c.311 0 .621-.03.938-.03l.194-.925a.22.22 0 0 0-.13-.246zm-.556.885-.12.028a.629.629 0 0 1-.148.02.2.2 0 0 1-.114-.03.069.069 0 0 1-.03-.071c.013-.06.074-.104.184-.13.097-.022.194-.049.289-.081l-.061.264zm2.04-1.113h.548l.056-.27h-.549l-.056.27zm-.294 1.391h.548l.256-1.216h-.55l-.254 1.216zm-4.762-1.034c-.092-.427-.527-.616-.983-.642-.537-.031-1.226.26-1.347.86a.626.626 0 0 0 .212.623c.31.259.778.234 1.153.185.092-.013.183-.028.275-.037l-.107.233h.588l-.06-.439c-.011-.089.374-.299.269-.783zm-.605.206a.563.563 0 0 1-.202.325.66.66 0 0 1-.434.149.52.52 0 0 1-.361-.112.338.338 0 0 1-.114-.265v-.038a.573.573 0 0 1 .217-.388.669.669 0 0 1 .439-.154.505.505 0 0 1 .355.115.349.349 0 0 1 .112.268.462.462 0 0 1-.012.1zm1.897.21a.363.363 0 0 1-.123.214.297.297 0 0 1-.19.068.19.19 0 0 1-.13-.046.172.172 0 0 1-.053-.135c0-.02.003-.041.008-.061l.134-.638h-.55l-.184.888a.312.312 0 0 0-.007.053.265.265 0 0 0 .158.234.686.686 0 0 0 .342.08.873.873 0 0 0 .288-.047.599.599 0 0 0 .235-.146l-.032.154h.527l.256-1.216h-.55l-.129.598zm6.246-.598.12.849.477-.85h.55l-.98 1.488a.643.643 0 0 1-.308.25 1.018 1.018 0 0 1-.367.06c-.064.001-.128-.003-.192-.01a.915.915 0 0 1-.15-.03v-.347c.08.037.167.054.255.052a.545.545 0 0 0 .23-.045.195.195 0 0 0 .117-.14.2.2 0 0 0 0-.046.207.207 0 0 0 0-.054l-.328-1.177h.576zm-.87-.33-.07.33h.321l-.068.328h-.323l-.085.405a.315.315 0 0 0-.007.06.093.093 0 0 0 .035.08c.027.02.059.028.091.025.072-.007.143-.02.219-.034l-.134.33a.562.562 0 0 1-.168.057 1.038 1.038 0 0 1-.218.023.624.624 0 0 1-.29-.061.209.209 0 0 1-.136-.186c0-.015.002-.03.006-.044l.138-.658h-.224l.066-.328h.226l.05-.234.572-.092zm-2.825 1.546h.55l.344-1.642h-.55l-.344 1.642zm-7.385-.899a.35.35 0 0 0-.348.351.35.35 0 0 0 .348.351.35.35 0 0 0 .347-.35.35.35 0 0 0-.347-.352zm13.235 0a.35.35 0 0 0-.347.351.35.35 0 0 0 .347.351.35.35 0 0 0 .348-.35.35.35 0 0 0-.348-.352zm17.5-13.895V1.348h-.599v-.254h1.539v.254h-.603V2.64h-.338v-.015zm1.118 0v-1.53h.478v.009l.453 1.178.439-1.177v-.01H50v1.545h-.304V1.435l-.448 1.197v.009h-.299v-.01l-.476-1.215v1.223h-.312v-.015z"/></svg>
