<svg xmlns="http://www.w3.org/2000/svg" viewBox="0 0 7673.000000 1502.000000" role="img"><path fill="currentColor" d="M4365.500 9.800c-98.400 5.200 -179.100 9.600 -179.300 9.700 -0.200 0.200 -281.200 1455.100 -281.200 1456.100 0.000 0.200 80.900 0.300 179.700 0.200l179.700 -0.300 142.300 -737.000c78.200 -405.400 142.200 -737.300 142.300 -737.800 0.000 -0.400 -1.000 -0.600 -2.200 -0.600 -1.300 0.100 -82.800 4.400 -181.300 9.700z"/><path fill="currentColor" d="M4896.500 9.800c-97.900 5.200 -178.300 9.800 -178.700 10.100 -0.400 0.300 -6.500 31.200 -13.700 68.600 -7.100 37.400 -47.200 247.100 -89.100 466.000 -41.800 218.900 -78.500 410.400 -81.500 425.500 -14.600 74.000 -20.200 121.000 -21.200 176.000 -0.600 34.100 0.200 50.500 3.300 72.000 17.500 121.500 90.200 204.800 214.400 245.700 109.000 36.000 269.800 37.500 403.700 3.900 101.600 -25.500 192.100 -70.400 272.300 -135.000 137.300 -110.600 235.200 -277.500 275.000 -469.100 17.000 -81.900 22.700 -175.300 15.000 -243.800 -17.200 -151.500 -94.700 -269.200 -209.500 -318.300 -64.300 -27.500 -143.200 -34.900 -225.500 -21.300 -93.900 15.600 -180.700 58.800 -248.000 123.600l-11.600 11.200 2.300 -12.700c12.600 -68.200 74.400 -404.700 74.900 -408.000 0.600 -4.000 0.500 -4.200 -1.700 -4.100 -1.300 0.100 -82.500 4.400 -180.400 9.700zm317.500 569.700c60.200 13.200 96.400 60.400 107.700 140.500 2.500 17.600 2.500 70.900 0.000 92.500 -5.000 42.900 -13.000 80.000 -25.900 119.400 -39.000 119.900 -110.000 217.800 -191.300 263.900 -70.300 39.800 -152.100 38.300 -191.600 -3.500 -17.500 -18.600 -26.800 -41.400 -30.000 -74.000 -1.400 -14.600 -0.600 -48.600 1.600 -67.300 2.000 -16.900 8.000 -58.000 10.000 -68.000 3.400 -17.700 26.800 -120.800 30.500 -134.000 18.300 -67.100 48.200 -128.200 85.400 -175.000 12.400 -15.600 36.700 -39.900 50.700 -50.700 32.300 -25.100 66.900 -40.300 102.900 -45.300 10.000 -1.400 41.200 -0.400 50.000 1.500z"/><path fill="currentColor" d="M7308.200 8.300c-170.800 8.000 -174.300 8.200 -174.700 10.200 -1.000 3.900 -52.800 271.100 -82.000 422.500 -16.200 83.900 -48.800 251.900 -72.500 373.400 -46.100 236.500 -49.100 252.600 -54.400 289.800 -10.900 75.800 -13.900 144.600 -8.100 184.500 14.400 98.100 77.500 167.100 179.600 196.700 40.000 11.500 76.500 16.000 129.900 16.000 66.800 -0.100 127.900 -6.600 173.700 -18.400 15.200 -3.900 31.300 -9.500 31.300 -10.800 -0.100 -0.400 9.500 -64.300 21.100 -141.900 11.700 -77.700 21.000 -141.500 20.700 -141.900 -0.400 -0.300 -7.300 0.400 -15.500 1.500 -21.700 3.100 -40.100 4.100 -74.300 4.100 -33.700 0.000 -43.100 -1.000 -56.700 -5.800 -18.800 -6.600 -30.500 -17.800 -37.500 -35.900 -4.400 -11.400 -5.800 -19.500 -6.500 -37.400 -0.900 -25.200 2.600 -60.900 10.300 -106.400 2.700 -16.000 80.300 -409.200 82.900 -420.300l0.500 -2.200 121.800 0.000 121.700 0.000 26.400 -137.300c14.500 -75.400 26.600 -137.800 26.900 -138.400 0.300 -1.000 -24.700 -1.300 -121.500 -1.500l-121.900 -0.300 10.200 -54.000c36.200 -190.600 47.300 -249.300 47.600 -251.500 0.200 -2.100 -0.100 -2.500 -2.200 -2.600 -1.400 -0.100 -80.900 3.500 -176.800 7.900z"/><path fill="currentColor" d="M1406.800 250.900c-91.100 134.500 -166.000 244.600 -166.500 244.600 -0.600 0.000 -27.500 -30.800 -59.900 -68.500 -32.400 -37.700 -69.400 -80.700 -82.200 -95.500 -12.800 -14.900 -78.900 -91.600 -146.900 -170.500 -68.000 -78.900 -124.100 -144.100 -124.800 -144.800 -0.900 -1.000 -80.300 35.500 -390.600 179.300 -214.200 99.400 -389.700 180.900 -390.000 181.300 -0.300 0.400 -10.900 160.200 -23.400 355.100 -18.900 295.900 -22.500 354.500 -21.300 355.600 2.300 2.200 613.000 400.700 614.700 401.200 0.900 0.200 166.800 -46.600 368.600 -104.100 201.900 -57.400 368.200 -104.800 369.700 -105.100 2.000 -0.500 122.500 29.600 429.800 107.500 234.900 59.500 427.700 108.000 428.300 107.700 0.700 -0.300 61.400 -123.500 134.900 -273.800l133.500 -273.400 8.300 -396.300c4.600 -217.900 8.100 -396.400 7.800 -396.700 -0.200 -0.200 -207.600 -33.500 -460.900 -74.000 -253.200 -40.400 -461.100 -73.600 -462.000 -73.900 -1.100 -0.200 -48.400 68.900 -167.100 244.300zm310.700 -165.500c14.700 3.800 28.900 11.200 37.500 19.200 19.400 18.400 19.600 40.700 0.600 59.900 -16.100 16.300 -41.300 25.900 -71.100 27.200 -33.000 1.400 -60.700 -7.400 -77.600 -24.700 -23.400 -23.900 -12.300 -56.400 25.300 -73.900 18.400 -8.600 31.900 -11.200 56.800 -10.700 16.100 0.300 19.800 0.700 28.500 3.000zm-1006.500 79.500c7.600 2.900 13.100 7.100 17.300 13.300 5.400 8.000 7.000 15.000 6.400 27.700 -1.000 23.100 -12.900 46.900 -34.600 69.500 -27.000 28.000 -59.800 44.000 -87.000 42.300 -24.300 -1.400 -38.500 -16.500 -38.400 -40.700 0.200 -46.200 50.700 -101.600 103.400 -113.500 9.200 -2.100 25.700 -1.400 32.900 1.400zm1564.500 8.600c18.900 3.300 37.700 11.200 49.100 20.400 12.500 10.200 17.900 21.000 17.200 34.600 -0.600 11.400 -3.900 17.800 -14.200 28.000 -19.800 19.700 -51.500 30.500 -89.800 30.500 -75.500 0.000 -118.800 -46.700 -79.300 -85.500 16.700 -16.300 40.400 -25.600 76.500 -29.900 6.800 -0.800 31.600 0.400 40.500 1.900zm-1358.600 46.100c6.600 3.300 19.500 16.200 27.500 27.300 16.700 23.300 31.700 56.700 37.800 84.300 3.100 14.300 3.200 31.300 0.100 38.000 -1.100 2.500 -3.300 5.400 -4.700 6.300 -19.600 12.900 -64.200 -47.000 -79.300 -106.500 -6.100 -24.100 -5.500 -42.000 1.700 -49.100 3.800 -3.800 9.600 -3.900 16.900 -0.300zm694.100 14.900c49.000 8.000 76.400 39.900 61.100 71.000 -5.300 10.600 -17.900 22.300 -31.600 29.300 -5.800 2.900 -20.700 8.000 -28.400 9.700 -38.700 8.500 -80.200 0.200 -102.400 -20.500 -20.700 -19.300 -20.700 -43.100 -0.200 -63.400 13.000 -12.700 33.500 -22.100 57.500 -26.100 10.700 -1.800 32.700 -1.800 44.000 0.000zm574.800 102.300c25.000 5.500 42.000 13.900 54.500 27.000 27.600 29.000 7.700 67.600 -43.600 84.700 -62.200 20.600 -136.900 1.400 -150.200 -38.500 -2.600 -7.700 -1.800 -19.800 1.800 -27.500 10.900 -23.500 41.000 -40.900 81.100 -47.000 13.300 -2.100 44.200 -1.300 56.400 1.300zm267.000 32.500c5.100 5.400 7.200 18.000 7.200 42.400 0.000 56.000 -18.300 132.800 -36.000 151.500 -8.900 9.200 -15.400 1.400 -18.000 -21.400 -4.800 -41.000 9.300 -122.500 27.200 -158.100 7.300 -14.600 14.500 -19.900 19.600 -14.400zm-2207.300 4.200c11.300 3.200 20.500 12.200 24.700 24.200 3.300 9.700 3.100 24.300 -0.600 36.600 -10.800 36.200 -43.700 69.700 -79.200 80.300 -11.600 3.500 -25.900 3.700 -34.600 0.600 -17.400 -6.300 -25.800 -19.500 -25.800 -40.800 0.000 -30.300 22.200 -65.800 54.500 -87.100 20.900 -13.900 43.100 -18.900 61.000 -13.800zm454.600 0.300c21.200 7.500 32.300 27.400 29.200 52.100 -3.100 24.500 -16.300 48.300 -38.600 69.700 -23.400 22.500 -51.100 35.500 -76.200 35.600 -5.500 0.000 -12.200 -0.500 -14.900 -1.100 -40.700 -9.700 -46.000 -59.400 -11.400 -105.600 19.900 -26.400 48.000 -45.200 77.900 -52.000 8.900 -2.000 26.500 -1.300 34.000 1.300zm824.000 18.900c59.900 15.700 75.700 63.400 31.400 94.800 -21.900 15.500 -56.100 23.600 -87.000 20.500 -35.800 -3.500 -63.100 -18.300 -73.800 -39.900 -4.200 -8.500 -4.900 -20.500 -1.800 -29.500 5.700 -16.100 21.500 -30.700 42.900 -39.500 18.900 -7.800 32.600 -10.100 57.200 -9.700 17.900 0.300 20.500 0.600 31.100 3.300zm552.900 107.900c49.400 7.500 83.500 37.100 78.100 67.600 -3.900 22.600 -27.100 42.600 -60.600 52.300 -58.300 16.900 -127.600 -1.600 -146.100 -39.000 -3.800 -7.700 -3.900 -8.200 -3.900 -18.400 0.000 -9.800 0.200 -11.100 3.100 -17.100 4.300 -8.900 10.400 -16.100 19.700 -23.100 26.600 -20.000 68.600 -28.600 109.700 -22.300zm-1010.900 55.500c8.900 4.400 21.800 19.400 32.600 37.700 12.300 20.900 25.300 54.400 30.300 78.200 3.100 14.600 3.800 33.700 1.500 41.600 -4.600 16.100 -16.400 16.000 -32.200 -0.200 -27.200 -28.000 -53.500 -92.900 -53.700 -132.400 -0.100 -13.200 1.200 -18.600 5.500 -23.400 4.300 -4.900 8.400 -5.300 16.000 -1.500zm-833.800 16.800c24.200 8.400 33.000 35.900 22.000 68.100 -7.600 22.300 -24.400 44.700 -45.400 60.500 -35.100 26.400 -73.300 28.600 -90.900 5.200 -14.800 -19.500 -9.200 -55.500 13.400 -86.200 27.100 -36.800 71.500 -57.800 100.900 -47.600zm456.000 16.600c32.000 8.300 42.900 41.100 26.800 80.400 -12.700 30.600 -44.200 61.600 -75.500 74.100 -13.900 5.600 -22.000 7.300 -35.100 7.400 -10.200 0.100 -13.100 -0.300 -19.400 -2.300 -28.700 -9.400 -38.700 -40.600 -24.400 -76.600 15.600 -39.300 55.900 -74.600 94.800 -82.800 9.300 -2.000 25.500 -2.100 32.800 -0.200zm723.400 80.900c53.100 13.100 100.200 55.600 106.500 96.100 3.500 22.700 -9.600 40.800 -34.200 47.100 -4.400 1.200 -10.400 1.700 -18.500 1.700 -54.600 -0.300 -118.800 -45.500 -131.000 -92.400 -7.300 -28.000 7.200 -49.400 37.300 -54.900 8.400 -1.600 28.700 -0.300 39.900 2.400zm859.300 58.100c4.100 2.100 7.600 8.600 10.200 19.000 2.000 8.200 2.300 11.300 2.300 34.000 -0.100 18.500 -0.500 28.100 -1.800 37.000 -7.100 48.500 -19.900 86.400 -34.200 101.200 -5.300 5.500 -6.600 6.300 -9.700 6.300 -7.200 0.000 -12.100 -7.100 -15.400 -22.200 -2.200 -10.100 -3.000 -38.300 -1.500 -54.900 5.200 -56.300 24.300 -111.700 41.600 -120.400 3.800 -1.900 4.900 -1.900 8.500 0.000zm-2058.300 50.900c8.100 2.200 14.000 5.600 19.400 11.300 9.000 9.500 12.500 20.500 11.600 36.300 -1.400 23.300 -13.200 47.300 -33.600 68.400 -15.400 15.800 -28.900 24.800 -46.400 31.100 -23.500 8.400 -43.200 6.300 -56.500 -6.000 -9.500 -8.700 -13.400 -18.900 -13.400 -34.600 0.000 -25.100 13.500 -52.400 37.400 -75.500 17.000 -16.400 36.900 -27.600 55.900 -31.300 6.900 -1.400 19.900 -1.200 25.600 0.300zm2159.200 3.000c11.600 12.300 10.300 63.900 -2.900 115.100 -8.900 34.700 -21.400 58.500 -30.700 58.500 -12.500 0.000 -16.600 -36.200 -9.300 -83.400 6.600 -42.800 21.600 -83.500 33.300 -90.700 4.200 -2.500 6.900 -2.400 9.600 0.500zm-403.900 22.100c44.900 7.300 91.900 40.600 110.100 78.000 6.300 12.900 8.200 21.300 7.600 33.000 -0.600 12.900 -3.300 19.300 -11.600 27.600 -11.400 11.300 -22.900 15.300 -44.600 15.400 -16.000 0.000 -23.100 -1.200 -39.800 -6.600 -38.300 -12.400 -73.300 -41.100 -88.700 -72.400 -6.300 -12.800 -8.300 -21.200 -7.800 -33.000 0.600 -11.900 3.200 -18.700 10.500 -26.500 7.700 -8.400 17.200 -13.300 30.400 -15.900 7.200 -1.400 23.700 -1.200 33.900 0.400zm485.200 20.200c3.100 5.300 4.200 19.400 2.900 36.700 -4.600 57.700 -26.600 123.100 -39.200 116.500 -7.600 -3.900 -7.700 -39.800 -0.300 -78.400 3.300 -16.900 5.700 -26.200 10.600 -41.500 9.900 -30.600 20.100 -43.600 26.000 -33.300zm-1237.600 68.800c9.800 4.100 26.400 25.700 37.300 48.500 11.200 23.600 20.500 53.800 23.100 75.300 1.500 11.900 0.800 28.600 -1.400 34.700 -5.000 13.500 -15.700 12.900 -29.400 -1.400 -19.300 -20.300 -37.700 -60.500 -46.400 -101.100 -3.100 -14.600 -3.400 -40.300 -0.500 -47.700 3.400 -8.700 9.400 -11.600 17.300 -8.300zm-426.300 21.900c50.200 9.400 82.900 35.900 76.200 61.900 -6.000 23.400 -39.700 39.000 -84.000 39.000 -39.400 -0.100 -73.800 -11.200 -94.100 -30.500 -15.300 -14.600 -18.100 -29.400 -8.300 -44.200 8.500 -12.700 29.100 -22.800 55.400 -27.100 11.700 -1.900 42.400 -1.300 54.800 0.900zm-453.700 158.700c57.600 5.600 99.000 35.600 86.000 62.300 -8.700 17.800 -37.400 28.800 -75.100 28.700 -48.200 0.000 -92.700 -18.800 -103.000 -43.400 -1.900 -4.600 -1.900 -13.700 -0.100 -18.200 1.900 -4.500 9.600 -12.600 15.500 -16.400 16.600 -10.700 47.300 -15.900 76.700 -13.000zm1148.200 11.800c41.900 8.100 84.600 39.000 100.300 72.500 17.500 37.300 -1.200 65.900 -43.100 65.900 -58.800 0.000 -126.600 -54.100 -126.300 -100.800 0.100 -29.600 29.100 -45.300 69.100 -37.600zm-760.100 37.600c30.900 4.000 57.700 15.300 71.100 29.900 6.300 7.000 8.500 11.600 9.000 19.400 0.400 5.200 0.000 7.100 -2.200 11.700 -6.100 12.400 -21.800 21.300 -46.900 26.700 -13.800 2.900 -42.000 3.100 -58.200 0.400 -52.200 -8.700 -84.300 -35.600 -71.900 -60.400 6.700 -13.500 29.000 -24.700 55.900 -28.100 11.300 -1.400 30.500 -1.200 43.200 0.400zm1576.800 23.100c11.200 12.000 6.800 66.400 -9.200 114.400 -14.900 44.800 -33.100 59.700 -38.400 31.400 -1.700 -8.700 -0.500 -38.200 2.000 -53.400 7.400 -43.300 23.800 -85.400 36.400 -93.000 4.300 -2.700 6.300 -2.500 9.200 0.600zm-1179.500 28.000c64.900 9.900 91.300 48.800 50.500 74.300 -6.800 4.300 -19.000 8.800 -31.500 11.800 -8.600 2.000 -14.000 2.600 -30.000 3.000 -27.400 0.800 -45.800 -2.000 -66.300 -10.100 -40.800 -16.000 -49.400 -45.400 -19.000 -64.600 22.400 -14.200 60.600 -19.900 96.300 -14.400zm904.000 52.700c27.400 7.100 53.900 22.000 73.300 41.200 31.100 30.800 39.900 64.500 22.100 85.300 -4.800 5.700 -11.600 9.800 -20.900 12.900 -7.000 2.300 -9.700 2.600 -21.500 2.600 -20.500 0.100 -37.500 -4.300 -59.500 -15.300 -15.700 -7.900 -28.600 -17.200 -41.100 -29.500 -11.100 -11.100 -17.400 -19.400 -22.700 -30.000 -6.100 -12.300 -7.200 -16.900 -7.200 -29.000 0.000 -10.400 0.200 -11.400 3.200 -17.600 5.600 -11.300 16.400 -19.000 31.400 -22.400 9.800 -2.200 30.800 -1.400 42.900 1.800zm-1346.300 79.300c33.200 4.900 61.200 19.600 68.400 36.000 13.400 30.200 -38.400 53.500 -97.800 43.900 -40.400 -6.500 -70.100 -27.000 -68.000 -47.000 0.700 -6.800 2.700 -10.600 8.500 -16.200 8.100 -7.700 25.200 -14.600 42.700 -17.200 10.100 -1.500 34.900 -1.200 46.200 0.500z"/><path fill="currentColor" d="M3488.000 283.600c-124.400 4.300 -237.600 39.400 -337.500 104.900 -123.200 80.600 -219.100 204.500 -273.900 353.700 -43.400 118.300 -57.500 247.000 -40.100 366.000 17.200 117.900 66.900 213.800 145.000 279.900 77.000 65.100 179.100 101.800 306.000 109.900 20.400 1.300 80.300 1.300 105.000 0.000 114.800 -6.000 217.500 -25.700 306.300 -58.600 34.200 -12.700 75.200 -31.900 75.200 -35.200 0.000 -3.500 -25.200 -263.700 -25.600 -264.100 -0.200 -0.200 -7.000 2.800 -15.100 6.700 -74.500 35.700 -149.400 57.400 -228.800 66.100 -115.000 12.700 -194.700 0.600 -253.000 -38.400 -18.500 -12.400 -37.600 -30.800 -47.400 -45.800 -8.300 -12.800 -17.900 -36.400 -23.000 -56.400 -2.600 -10.000 -6.100 -30.300 -6.100 -34.900l0.000 -3.400 53.300 0.000c104.000 0.000 183.400 -5.200 261.700 -17.100 251.800 -38.200 391.700 -141.000 420.400 -308.900 4.600 -26.800 5.100 -33.700 5.100 -71.500 -0.100 -39.200 -0.700 -47.000 -6.600 -75.600 -18.500 -91.500 -72.100 -166.200 -155.000 -216.000 -55.700 -33.500 -126.600 -54.500 -201.900 -59.800 -16.700 -1.200 -50.100 -2.000 -64.000 -1.500zm8.300 269.900c49.000 8.900 77.200 35.200 81.800 76.100 1.800 16.700 -2.300 38.100 -9.800 51.200 -24.900 43.400 -92.400 69.000 -209.300 79.600 -34.600 3.200 -90.600 5.600 -129.300 5.600l-19.700 0.000 0.600 -2.800c3.200 -13.800 14.700 -43.900 23.400 -61.200 43.800 -87.300 118.000 -140.900 207.500 -150.000 12.800 -1.300 44.300 -0.400 54.800 1.500z"/><path fill="currentColor" d="M6430.500 284.000c-242.200 10.700 -447.800 145.900 -563.600 370.500 -67.100 130.200 -96.600 281.400 -82.400 423.000 18.900 188.100 111.600 319.600 269.500 381.800 55.200 21.800 115.900 34.300 187.500 38.800 21.700 1.300 99.300 0.700 122.000 -1.000 142.600 -10.800 258.500 -39.000 350.600 -85.200l12.200 -6.000 -0.600 -4.700c-0.300 -2.600 -6.000 -62.300 -12.800 -132.700 -6.700 -70.400 -12.300 -128.200 -12.500 -128.400 -0.200 -0.200 -9.000 3.700 -19.600 8.700 -85.200 40.000 -163.300 60.300 -258.800 67.300 -25.300 1.900 -76.300 1.600 -94.800 -0.400 -59.500 -6.700 -105.100 -24.100 -140.800 -53.900 -10.000 -8.400 -21.600 -20.700 -28.300 -30.100 -13.900 -19.700 -27.400 -59.000 -30.900 -90.000l-0.800 -7.700 53.000 0.000c55.100 0.000 88.500 -0.900 131.100 -3.500 172.300 -10.700 301.500 -43.000 394.100 -98.700 28.800 -17.300 52.100 -35.600 74.600 -58.600 38.000 -38.900 63.700 -85.000 77.300 -138.700 8.800 -34.400 12.000 -65.300 11.200 -106.300 -0.500 -28.600 -1.900 -41.800 -6.700 -66.200 -9.800 -49.300 -31.200 -96.400 -61.700 -135.500 -48.300 -62.200 -122.800 -107.500 -211.200 -128.600 -47.500 -11.300 -103.500 -16.200 -157.600 -13.900zm6.300 268.100c59.300 6.400 93.200 37.700 93.200 86.200 0.000 25.700 -7.600 44.700 -24.900 61.800 -37.300 36.800 -116.000 57.300 -245.900 63.900 -32.500 1.600 -97.200 2.500 -97.200 1.300 0.000 -2.400 7.300 -24.700 11.900 -36.400 26.900 -68.400 74.500 -123.000 132.700 -152.200 39.200 -19.600 89.200 -29.100 130.200 -24.600z"/></svg>
