<svg xmlns="http://www.w3.org/2000/svg" viewBox="0 0 1973 1968" role="img"><path fill="currentColor" d="M1001.300 1.400c-2.300 0.700 -5.600 2.300 -7.500 3.400 -1.800 1.200 -225.200 224.100 -496.400 495.400 -446.300 446.400 -493.300 493.800 -495.000 498.300 -1.300 3.300 -1.900 7.600 -1.900 13.000 0.000 6.700 0.400 8.900 2.700 13.500 2.300 4.700 72.800 75.600 469.500 472.100 457.300 457.200 466.900 466.700 472.800 468.900 8.200 3.000 17.900 2.500 25.500 -1.200 4.700 -2.300 50.300 -47.600 302.700 -300.000l297.200 -297.300 2.200 -7.300c1.600 -5.700 2.000 -8.700 1.500 -12.900 -1.500 -13.200 9.400 -1.500 -164.800 -175.800 -87.900 -88.100 -159.600 -160.300 -159.400 -160.600 0.300 -0.300 -45.000 -46.000 -100.700 -101.500 -113.500 -113.400 -104.900 -105.800 -120.200 -105.900 -15.500 0.000 -7.900 -6.800 -121.100 106.700 -80.500 80.700 -100.600 101.300 -102.500 105.300 -3.400 7.200 -3.400 20.800 0.000 28.000 1.900 4.000 22.100 24.800 103.400 106.200 55.600 55.700 101.400 101.000 101.700 100.800 0.400 -0.200 17.300 16.300 37.700 36.800 34.500 34.700 37.200 37.700 40.600 44.700 6.100 12.500 6.000 25.500 -0.400 38.200 -3.000 6.200 -110.400 113.700 -117.300 117.500 -4.600 2.500 -6.100 2.800 -14.600 2.800 -8.500 0.000 -10.000 -0.300 -14.600 -2.800 -3.700 -2.100 -66.000 -63.900 -233.100 -231.000 -254.000 -254.200 -231.800 -230.600 -231.800 -245.700 0.000 -15.100 -25.300 11.600 258.900 -272.800 283.600 -283.800 259.200 -260.600 274.200 -260.700 7.100 0.000 8.700 0.400 13.700 3.000 4.600 2.500 40.100 37.300 193.900 190.600 129.700 129.200 189.700 188.400 192.800 190.000 3.800 2.000 5.900 2.400 14.000 2.400 8.000 0.000 10.300 -0.400 14.500 -2.400 7.400 -3.500 203.000 -199.100 207.100 -207.100 2.500 -4.800 2.900 -6.600 2.900 -14.500 0.000 -7.400 -0.500 -9.900 -2.400 -14.000 -2.000 -4.100 -59.100 -61.700 -309.600 -312.200 -277.700 -277.800 -307.800 -307.500 -313.000 -309.900 -7.000 -3.200 -16.900 -4.100 -23.200 -2.000z"/><path fill="currentColor" d="M1747.500 776.600c-57.100 4.100 -106.100 26.800 -144.100 66.600 -30.700 32.200 -49.900 71.700 -57.000 117.300 -2.300 14.900 -2.300 45.000 0.000 60.000 4.600 29.700 15.200 58.800 30.400 83.200 20.100 32.400 50.000 59.800 84.400 77.400 31.300 15.900 61.700 23.200 97.300 23.200 21.500 0.000 33.500 -1.500 54.100 -6.800 84.400 -21.600 147.000 -93.300 158.500 -181.500 1.600 -12.200 1.600 -38.800 0.000 -51.000 -12.600 -97.200 -87.400 -173.400 -183.300 -186.400 -11.100 -1.600 -32.200 -2.600 -40.300 -2.000z"/></svg>
