<svg xmlns="http://www.w3.org/2000/svg" viewBox="0 0 66 20" role="img"><path fill="currentColor" d="M15.976 15.704C16.542 15.937 17.024 16.220 17.390 16.586C17.557 16.753 17.707 16.953 17.840 17.152C17.723 17.269 17.623 17.386 17.507 17.502C15.543 19.467 12.681 19.983 10.002 20.000C7.322 20.000 4.460 19.467 2.496 17.502C2.380 17.386 2.263 17.269 2.163 17.152C2.297 16.936 2.446 16.753 2.613 16.586C2.995 16.220 3.461 15.920 4.027 15.704C4.077 15.737 4.110 15.787 4.160 15.837C5.691 17.369 7.921 17.769 10.002 17.785C12.082 17.769 14.312 17.369 15.843 15.837C15.893 15.803 15.926 15.754 15.976 15.704ZM10.002 4.097C12.082 4.113 13.596 4.580 14.511 5.495C15.427 6.395 15.893 7.927 15.909 10.008C15.893 12.090 15.427 13.605 14.511 14.521C13.596 15.437 12.082 15.903 10.002 15.920C7.921 15.903 6.407 15.437 5.492 14.521C4.576 13.605 4.110 12.090 4.094 10.008C4.110 7.927 4.576 6.411 5.492 5.495C6.407 4.580 7.921 4.113 10.002 4.097ZM10.002 0.000C12.681 0.000 15.543 0.533 17.507 2.498C19.470 4.463 20.003 7.327 20.003 10.008C19.986 11.857 19.737 13.805 18.921 15.487C18.855 15.404 18.772 15.321 18.705 15.254C18.222 14.754 17.640 14.371 17.024 14.088C17.590 12.823 17.790 11.374 17.790 9.992C17.773 7.910 17.374 5.679 15.843 4.147C14.312 2.614 12.082 2.215 10.002 2.198C7.921 2.215 5.691 2.614 4.160 4.147C2.629 5.679 2.230 7.910 2.213 9.992C2.230 11.374 2.413 12.823 2.979 14.088C2.363 14.388 1.797 14.754 1.298 15.254C1.215 15.337 1.148 15.404 1.082 15.487C0.266 13.822 0.017 11.873 0.000 10.008C0.000 7.327 0.533 4.463 2.496 2.498C4.460 0.533 7.322 0.017 10.002 0.000ZM25.911 6.428C26.343 6.311 26.893 6.195 27.575 6.078C28.257 5.962 29.006 5.912 29.838 5.912C30.620 5.912 31.269 6.012 31.785 6.228C32.301 6.445 32.717 6.744 33.033 7.127C33.349 7.510 33.566 7.977 33.682 8.510C33.815 9.059 33.882 9.642 33.882 10.291L33.882 15.903L31.669 15.903L31.669 10.641C31.669 10.125 31.635 9.692 31.569 9.342C31.502 8.976 31.386 8.693 31.236 8.460C31.086 8.226 30.870 8.077 30.620 7.960C30.354 7.860 30.038 7.810 29.655 7.810C29.372 7.810 29.089 7.827 28.773 7.860C28.474 7.893 28.241 7.927 28.091 7.943L28.091 15.887L28.091 15.887C26.876 15.887 25.877 14.904 25.877 13.672L25.877 6.428L25.911 6.428ZM42.852 11.640C42.702 11.324 42.502 11.057 42.253 10.824C42.003 10.608 41.703 10.425 41.354 10.291C41.021 10.158 40.672 10.042 40.289 9.958C40.089 9.925 39.856 9.875 39.590 9.825C39.340 9.775 39.107 9.709 38.874 9.609C38.658 9.525 38.475 9.392 38.325 9.242C38.192 9.109 38.126 8.959 38.126 8.743C38.126 8.493 38.242 8.310 38.475 8.160C38.741 8.010 39.057 7.927 39.424 7.927C39.823 7.927 40.156 8.010 40.422 8.160C40.688 8.310 40.938 8.510 41.121 8.743L41.238 8.893L41.387 8.776L42.719 7.760L42.868 7.644L42.769 7.494C42.419 6.928 41.936 6.511 41.337 6.278C40.755 6.045 40.139 5.928 39.507 5.928C39.074 5.928 38.641 5.995 38.209 6.112C37.776 6.228 37.377 6.411 37.044 6.661C36.694 6.911 36.411 7.227 36.212 7.594C35.995 7.977 35.896 8.426 35.896 8.926C35.896 9.392 35.979 9.792 36.145 10.108C36.312 10.425 36.528 10.691 36.811 10.908C37.077 11.107 37.393 11.274 37.743 11.391C38.076 11.507 38.442 11.607 38.808 11.707C39.008 11.740 39.224 11.790 39.474 11.857C39.707 11.907 39.939 11.990 40.139 12.073C40.339 12.157 40.505 12.273 40.638 12.423C40.755 12.556 40.821 12.706 40.821 12.906C40.821 13.056 40.788 13.172 40.705 13.289C40.622 13.405 40.505 13.505 40.356 13.589C40.206 13.672 40.023 13.739 39.823 13.772C39.623 13.822 39.407 13.838 39.207 13.838C38.758 13.838 38.375 13.739 38.059 13.539C37.726 13.339 37.427 13.089 37.160 12.823L37.027 12.689L36.877 12.806L35.579 13.872L35.430 13.988L35.546 14.138C36.012 14.771 36.545 15.221 37.144 15.470C37.726 15.704 38.425 15.820 39.191 15.820C39.640 15.820 40.106 15.770 40.555 15.670C41.021 15.570 41.437 15.387 41.787 15.154C42.153 14.904 42.452 14.588 42.685 14.205C42.918 13.805 43.035 13.339 43.035 12.789C43.068 12.356 43.002 11.957 42.852 11.640ZM49.708 5.878L48.477 5.878C46.413 5.878 44.732 7.560 44.732 9.625L44.732 12.157C44.732 14.221 46.413 15.903 48.477 15.903L49.708 15.903C51.772 15.903 53.452 14.221 53.452 12.157L53.452 9.625C53.469 7.560 51.788 5.878 49.708 5.878ZM51.172 12.073C51.172 13.022 50.407 13.789 49.458 13.789L48.759 13.789C47.811 13.789 47.045 13.022 47.045 12.073L47.045 9.692C47.045 8.743 47.811 7.977 48.759 7.977L49.458 7.977C50.407 7.977 51.172 8.743 51.172 9.692L51.172 12.073ZM59.710 6.794L57.579 6.794L57.579 5.679C57.579 4.913 58.495 4.480 59.726 4.446L59.726 2.198C56.381 2.198 55.349 3.697 55.349 5.545L55.349 6.794L55.349 8.560L55.349 15.903L57.579 15.903L57.579 8.759L59.693 8.759L59.693 6.794L59.710 6.794ZM65.967 8.743L63.853 8.743L63.853 12.440C63.853 13.206 64.769 13.639 66.000 13.672L66.000 15.920C62.655 15.920 61.623 14.421 61.623 12.573L61.623 11.107L61.623 9.126L61.623 2.198L61.623 2.198C62.855 2.198 63.853 3.197 63.853 4.430L63.853 6.761L65.967 6.761L65.967 8.743Z"/></svg>
