<svg xmlns="http://www.w3.org/2000/svg" viewBox="0 0 66 16" role="img"><path fill="currentColor" d="M4.884 14.041C3.845 14.041 2.805 13.924 2.558 13.891L2.558 12.875C2.805 12.892 3.663 12.942 4.422 12.958C4.455 12.958 4.505 12.958 4.505 12.958C5.924 12.958 6.799 12.175 7.030 11.942C7.640 11.293 7.954 10.510 7.954 9.660L7.954 8.461L7.624 8.711C6.799 9.344 5.842 9.660 4.769 9.660C3.911 9.660 3.102 9.444 2.376 9.011C1.650 8.578 1.073 7.995 0.644 7.245C0.215 6.512 0.000 5.696 0.000 4.830C0.000 4.264 0.099 3.714 0.281 3.181C0.462 2.665 0.743 2.182 1.089 1.749C1.518 1.216 2.063 0.783 2.690 0.483C3.317 0.167 3.993 0.017 4.686 0.000L9.802 0.000L9.802 9.527C9.802 9.644 9.802 9.677 9.802 9.694L9.802 9.710C9.769 10.576 9.521 11.359 9.092 12.059C8.861 12.409 7.706 14.041 4.884 14.041ZM4.752 1.532C4.274 1.532 3.812 1.632 3.383 1.832C2.954 2.032 2.591 2.332 2.277 2.698C1.815 3.281 1.551 4.031 1.551 4.814C1.551 5.280 1.650 5.763 1.799 6.129C1.964 6.512 2.195 6.862 2.492 7.179C2.789 7.478 3.135 7.728 3.531 7.878C3.911 8.045 4.323 8.128 4.752 8.128C5.413 8.128 6.007 7.961 6.502 7.612C6.947 7.312 7.343 6.846 7.607 6.296C7.838 5.830 7.954 5.396 7.954 4.897L7.954 1.516L4.752 1.516L4.752 1.532ZM47.737 9.469C45.664 9.469 43.846 9.206 43.506 9.157L43.506 8.236C43.914 8.269 45.766 8.417 46.972 8.417C48.722 8.417 50.099 8.417 50.099 7.036C50.099 6.001 49.317 5.787 48.485 5.573L45.579 4.800C43.778 4.324 43.455 3.600 43.455 2.302C43.455 0.740 44.033 0.000 47.312 0.000C49.130 0.000 51.050 0.279 51.424 0.345L51.424 1.249C51.050 1.217 49.385 1.118 47.992 1.085L47.890 1.085C47.703 1.085 47.516 1.085 47.346 1.085C46.191 1.085 45.307 1.184 45.307 2.384C45.307 3.420 46.106 3.617 46.870 3.814L49.810 4.603C51.492 5.063 51.950 5.573 51.950 6.987C51.934 8.943 51.084 9.469 47.737 9.469ZM61.803 9.469C60.087 9.469 58.100 9.223 57.726 9.173L57.726 8.253C58.117 8.286 59.833 8.417 61.022 8.417C62.772 8.417 64.148 8.417 64.148 7.036C64.148 6.001 63.367 5.787 62.534 5.573L59.629 4.800C57.828 4.324 57.505 3.600 57.505 2.302C57.505 0.740 58.083 0.000 61.362 0.000C63.180 0.000 65.100 0.279 65.473 0.345L65.473 1.249C65.100 1.217 63.451 1.118 62.041 1.085L61.939 1.085C61.752 1.085 61.566 1.085 61.396 1.085C60.240 1.085 59.357 1.184 59.357 2.384C59.357 3.420 60.155 3.617 60.920 3.814L63.859 4.603C65.541 5.063 66.000 5.573 66.000 6.987C65.983 8.943 65.134 9.469 61.803 9.469L61.803 9.469ZM53.911 0.327L55.871 0.327L55.871 9.469L53.911 9.469L53.911 0.327ZM29.252 9.469L29.252 3.734C29.252 2.086 28.383 1.093 26.923 1.093C25.775 1.093 24.365 1.396 24.365 1.396L24.316 1.413L24.316 9.469L22.545 9.469L22.545 0.656C22.938 0.555 25.365 0.000 27.448 0.000C29.662 0.000 31.040 1.362 31.040 3.532L31.040 9.469L29.252 9.469L29.252 9.469ZM16.473 9.469C15.094 9.469 14.047 9.272 13.366 8.909C12.119 8.234 11.803 6.999 11.621 6.258L11.604 6.225C11.571 6.077 11.537 5.846 11.504 5.566C11.471 5.286 11.454 5.006 11.438 4.726L11.438 4.562C11.421 3.672 11.504 2.915 11.720 2.322C11.920 1.746 12.219 1.285 12.618 0.939C13.017 0.593 13.515 0.362 14.113 0.214C14.728 0.066 15.460 0.000 16.257 0.000C17.205 0.000 17.986 0.082 18.601 0.247C19.199 0.412 19.681 0.609 20.030 0.856C20.362 1.103 20.595 1.367 20.728 1.663C20.844 1.927 20.911 2.289 20.911 2.569C20.911 2.586 20.911 3.030 20.911 3.047C20.911 3.607 20.861 3.821 20.761 4.084C20.662 4.348 20.329 4.710 20.063 4.908C19.332 5.451 18.202 5.731 16.606 5.731C16.473 5.731 16.357 5.731 16.257 5.731C16.191 5.731 16.124 5.731 16.075 5.731L13.332 5.731L13.349 5.813C13.415 6.390 13.532 6.834 13.665 7.098C13.981 7.740 14.529 8.350 16.374 8.432C16.590 8.448 16.822 8.448 17.072 8.448C18.435 8.448 20.013 8.300 20.379 8.267L20.379 9.189C20.130 9.222 19.066 9.371 17.936 9.453C17.587 9.436 17.055 9.469 16.473 9.469L16.473 9.469ZM16.473 1.054C15.842 1.054 15.310 1.103 14.895 1.202C14.462 1.317 14.113 1.499 13.848 1.779C13.582 2.042 13.415 2.388 13.332 2.816C13.266 3.195 13.233 3.672 13.233 4.232L13.249 4.644L16.839 4.644C17.653 4.644 18.268 4.446 18.700 4.035C18.833 3.920 18.983 3.738 19.049 3.524C19.083 3.376 19.099 3.211 19.099 3.047C19.099 3.014 19.099 2.602 19.099 2.569C19.083 2.042 18.867 1.647 18.418 1.400C18.002 1.153 17.371 1.054 16.473 1.054ZM37.694 9.469C36.315 9.469 35.268 9.272 34.586 8.911C33.340 8.239 33.024 6.991 32.841 6.269L32.825 6.204L32.825 6.187C32.791 6.056 32.758 5.875 32.742 5.662L32.742 5.596C32.708 5.301 32.675 4.989 32.675 4.694L32.675 4.546C32.658 3.660 32.758 2.905 32.958 2.314C33.157 1.740 33.456 1.280 33.855 0.935C34.254 0.591 34.753 0.361 35.351 0.213C35.966 0.066 36.697 0.000 37.495 0.000C38.442 0.000 39.223 0.082 39.838 0.246C40.437 0.410 40.919 0.607 41.268 0.853C41.600 1.100 41.833 1.362 41.966 1.658C42.082 1.920 42.149 2.281 42.149 2.560C42.149 2.577 42.149 3.036 42.149 3.036C42.149 3.594 42.099 3.791 41.999 4.070C41.899 4.333 41.567 4.694 41.301 4.891C40.570 5.432 39.439 5.711 37.844 5.711C37.711 5.711 37.595 5.711 37.495 5.711C37.428 5.711 37.362 5.711 37.312 5.711L34.570 5.711L34.586 5.793C34.653 6.368 34.769 6.811 34.902 7.073C35.218 7.713 35.783 8.321 37.611 8.403C37.811 8.419 38.060 8.419 38.309 8.419C39.705 8.419 41.417 8.271 41.799 8.239L41.799 9.158C41.517 9.190 40.320 9.338 39.190 9.420C38.808 9.437 38.276 9.469 37.694 9.469L37.694 9.469ZM37.711 1.083C37.079 1.083 36.548 1.132 36.132 1.231C35.700 1.346 35.351 1.526 35.085 1.805C34.819 2.068 34.653 2.412 34.570 2.839C34.503 3.217 34.470 3.693 34.470 4.251L34.487 4.661L38.077 4.661C38.891 4.661 39.506 4.464 39.938 4.054C40.071 3.939 40.221 3.758 40.287 3.545C40.320 3.397 40.337 3.233 40.337 3.069C40.337 3.036 40.337 2.626 40.337 2.593C40.320 2.068 40.104 1.674 39.655 1.428C39.240 1.182 38.608 1.083 37.711 1.083ZM16.586 16.000C16.344 16.000 16.119 15.966 15.929 15.880C15.739 15.794 15.583 15.673 15.445 15.536C15.306 15.398 15.203 15.209 15.133 15.020C15.064 14.814 15.030 14.608 15.030 14.385C15.030 14.144 15.064 13.938 15.133 13.731C15.203 13.525 15.306 13.353 15.445 13.199C15.583 13.044 15.739 12.924 15.929 12.855C16.119 12.769 16.344 12.735 16.586 12.735C16.742 12.735 16.915 12.752 17.054 12.803C17.209 12.855 17.348 12.924 17.469 13.010C17.590 13.096 17.694 13.216 17.763 13.353C17.832 13.474 17.884 13.628 17.901 13.783L17.296 13.783C17.244 13.611 17.157 13.474 17.036 13.388C16.915 13.302 16.759 13.250 16.586 13.250C16.414 13.250 16.275 13.285 16.154 13.353C16.033 13.422 15.946 13.508 15.877 13.611C15.808 13.714 15.756 13.835 15.722 13.972C15.687 14.110 15.670 14.247 15.670 14.385C15.670 14.522 15.687 14.660 15.722 14.780C15.756 14.917 15.808 15.038 15.877 15.141C15.946 15.244 16.050 15.330 16.154 15.398C16.275 15.467 16.414 15.502 16.586 15.502C16.829 15.502 17.019 15.433 17.157 15.313C17.296 15.192 17.365 15.003 17.399 14.780L17.399 14.745L16.673 14.745L16.673 14.281L17.970 14.281L17.970 15.948L17.572 15.948L17.486 15.536L17.434 15.588C17.313 15.742 17.175 15.863 17.019 15.914C16.881 15.966 16.725 16.000 16.586 16.000ZM20.619 16.000L20.386 15.326L19.166 15.326L18.915 16.000L18.297 16.000L19.450 13.061L20.101 13.061L21.238 16.000L20.619 16.000ZM19.751 13.752L19.333 14.892L20.235 14.892L19.817 13.720L19.767 13.720L19.751 13.752ZM24.581 16.000L24.581 13.864L24.531 13.864L24.515 13.880L23.772 16.000L23.294 16.000L22.535 13.880L22.469 13.880L22.469 13.912L22.469 16.000L21.891 16.000L21.891 13.061L22.799 13.061L23.525 15.117L23.558 15.117L23.574 15.101L24.251 13.061L25.158 13.061L25.158 16.000L24.581 16.000ZM25.812 13.061L26.465 13.061L26.465 16.000L25.812 16.000L25.812 13.061ZM29.083 16.000L27.768 13.977L27.717 13.977L27.700 14.009L27.700 16.000L27.119 16.000L27.119 13.061L27.751 13.061L29.083 15.069L29.135 15.069L29.152 15.036L29.152 13.061L29.733 13.061L29.733 16.000L29.083 16.000ZM31.943 16.000C31.701 16.000 31.476 15.966 31.286 15.880C31.095 15.794 30.940 15.673 30.801 15.536C30.663 15.398 30.559 15.209 30.490 15.020C30.421 14.814 30.386 14.608 30.386 14.385C30.386 14.144 30.421 13.938 30.490 13.731C30.559 13.525 30.663 13.353 30.801 13.199C30.940 13.044 31.095 12.924 31.286 12.855C31.476 12.769 31.701 12.735 31.943 12.735C32.099 12.735 32.272 12.752 32.410 12.803C32.566 12.855 32.704 12.924 32.825 13.010C32.946 13.096 33.050 13.216 33.119 13.353C33.188 13.474 33.240 13.628 33.258 13.783L32.652 13.783C32.600 13.611 32.514 13.474 32.393 13.388C32.272 13.302 32.116 13.250 31.943 13.250C31.770 13.250 31.632 13.285 31.510 13.353C31.389 13.422 31.303 13.508 31.234 13.611C31.165 13.714 31.113 13.835 31.078 13.972C31.043 14.110 31.026 14.247 31.026 14.385C31.026 14.522 31.043 14.660 31.078 14.780C31.113 14.917 31.165 15.038 31.234 15.141C31.303 15.244 31.407 15.330 31.510 15.398C31.632 15.467 31.770 15.502 31.943 15.502C32.185 15.502 32.375 15.433 32.514 15.313C32.652 15.192 32.721 15.003 32.756 14.780L32.756 14.745L32.029 14.745L32.029 14.281L33.327 14.281L33.327 15.948L32.929 15.948L32.842 15.536L32.791 15.588C32.669 15.742 32.531 15.863 32.375 15.914C32.237 15.966 32.081 16.000 31.943 16.000ZM34.937 16.000C34.732 16.000 34.561 15.965 34.441 15.895C34.322 15.824 34.219 15.754 34.151 15.666C34.083 15.579 34.031 15.473 34.014 15.386C33.997 15.280 33.980 15.210 33.980 15.140C33.980 15.017 33.997 14.912 34.031 14.806C34.066 14.718 34.117 14.631 34.185 14.560C34.254 14.490 34.322 14.420 34.407 14.350C34.493 14.280 34.595 14.227 34.698 14.174L34.732 14.157L34.715 14.122C34.664 14.051 34.629 13.999 34.578 13.946C34.544 13.893 34.493 13.823 34.459 13.770C34.424 13.718 34.407 13.648 34.390 13.595C34.373 13.525 34.356 13.454 34.356 13.384C34.356 13.296 34.373 13.226 34.407 13.138C34.441 13.068 34.476 12.998 34.544 12.928C34.595 12.875 34.681 12.822 34.766 12.787C34.851 12.752 34.954 12.735 35.056 12.735C35.159 12.735 35.244 12.752 35.330 12.770C35.415 12.805 35.501 12.840 35.569 12.893C35.637 12.945 35.689 13.016 35.740 13.086C35.774 13.156 35.808 13.261 35.808 13.367C35.808 13.454 35.791 13.542 35.757 13.630C35.723 13.718 35.689 13.788 35.620 13.858C35.569 13.928 35.501 13.981 35.432 14.051C35.364 14.104 35.296 14.157 35.210 14.209L35.176 14.227L35.808 15.034L35.825 14.982C35.877 14.824 35.911 14.666 35.928 14.490L36.218 14.490C36.218 14.578 36.201 14.648 36.201 14.701C36.184 14.771 36.184 14.824 36.167 14.894C36.150 14.947 36.133 14.999 36.116 15.070C36.099 15.122 36.064 15.192 36.030 15.263L36.013 15.280L36.594 15.982L36.184 15.982L35.825 15.544L35.808 15.579C35.757 15.649 35.706 15.719 35.637 15.772C35.569 15.824 35.501 15.877 35.432 15.912C35.364 15.947 35.279 15.982 35.193 16.000C35.108 15.982 35.022 16.000 34.937 16.000ZM34.886 14.367C34.817 14.402 34.732 14.455 34.664 14.508C34.595 14.560 34.527 14.613 34.476 14.666C34.424 14.718 34.373 14.789 34.356 14.876C34.322 14.947 34.305 15.034 34.305 15.140C34.305 15.228 34.322 15.315 34.356 15.386C34.390 15.456 34.441 15.526 34.510 15.579C34.561 15.631 34.629 15.666 34.715 15.702C34.783 15.737 34.869 15.737 34.954 15.737C35.108 15.737 35.244 15.702 35.364 15.631C35.484 15.561 35.586 15.456 35.672 15.333L35.689 15.315L34.920 14.367L34.886 14.367ZM35.074 12.998C34.971 12.998 34.886 13.033 34.800 13.086C34.715 13.156 34.664 13.244 34.664 13.384C34.664 13.437 34.681 13.490 34.698 13.542C34.715 13.595 34.749 13.648 34.766 13.700C34.800 13.753 34.834 13.788 34.869 13.841L34.988 13.999L35.022 13.981C35.074 13.946 35.108 13.911 35.159 13.876C35.210 13.841 35.262 13.788 35.296 13.753C35.347 13.700 35.381 13.648 35.398 13.595C35.432 13.542 35.449 13.472 35.449 13.384C35.449 13.279 35.415 13.191 35.347 13.121C35.296 13.033 35.193 12.998 35.074 12.998ZM37.248 16.000L37.248 13.061L38.717 13.061C38.871 13.061 39.007 13.077 39.127 13.093C39.246 13.125 39.349 13.158 39.434 13.206C39.520 13.254 39.588 13.334 39.639 13.415C39.691 13.511 39.708 13.623 39.708 13.752C39.708 13.896 39.673 14.009 39.605 14.105C39.537 14.201 39.434 14.282 39.298 14.346L39.212 14.378L39.298 14.394C39.486 14.442 39.622 14.539 39.725 14.667C39.810 14.796 39.861 14.956 39.861 15.133C39.861 15.277 39.827 15.406 39.776 15.518C39.725 15.631 39.639 15.711 39.537 15.775C39.434 15.839 39.315 15.888 39.178 15.920C39.041 15.952 38.905 15.968 38.768 15.968L37.248 15.968L37.248 16.000ZM37.880 15.550L38.666 15.550C38.734 15.550 38.802 15.550 38.871 15.534C38.939 15.518 38.990 15.502 39.041 15.470C39.093 15.438 39.144 15.390 39.161 15.342C39.195 15.293 39.212 15.213 39.212 15.133C39.212 14.972 39.161 14.844 39.058 14.780C38.956 14.715 38.836 14.667 38.666 14.667L37.863 14.667L37.863 15.550L37.880 15.550ZM37.880 14.266L38.631 14.266C38.768 14.266 38.871 14.234 38.956 14.169C39.041 14.105 39.093 14.009 39.093 13.864C39.093 13.784 39.076 13.720 39.041 13.671C39.007 13.623 38.973 13.575 38.922 13.559C38.871 13.527 38.819 13.511 38.751 13.495C38.683 13.479 38.631 13.479 38.563 13.479L37.880 13.479L37.880 14.266L37.880 14.266ZM40.515 16.000L40.515 13.061L42.769 13.061L42.769 13.543L41.128 13.543L41.128 14.250L42.636 14.250L42.636 14.699L41.128 14.699L41.128 15.502L42.802 15.502L42.802 16.000L40.515 16.000ZM47.540 12.735C47.768 12.735 47.981 12.769 48.160 12.855C48.340 12.941 48.487 13.061 48.618 13.199C48.749 13.353 48.847 13.525 48.912 13.731C48.977 13.938 49.010 14.161 49.010 14.385C49.010 14.608 48.977 14.831 48.912 15.020C48.847 15.227 48.749 15.398 48.618 15.536C48.487 15.673 48.340 15.794 48.160 15.880C47.981 15.966 47.785 16.000 47.540 16.000C47.311 16.000 47.099 15.966 46.919 15.880C46.739 15.794 46.592 15.673 46.461 15.536C46.331 15.398 46.233 15.209 46.167 15.020C46.102 14.814 46.069 14.608 46.069 14.385C46.069 14.144 46.102 13.938 46.167 13.731C46.233 13.525 46.331 13.353 46.461 13.199C46.592 13.044 46.739 12.924 46.919 12.855C47.099 12.769 47.311 12.735 47.540 12.735ZM43.843 13.061L44.608 14.266L45.355 13.061L46.069 13.061L44.913 14.860L44.913 16.000L44.285 16.000L44.285 14.844L43.129 13.061L43.843 13.061ZM47.540 13.233C47.376 13.233 47.246 13.267 47.131 13.336C47.017 13.405 46.935 13.491 46.870 13.594C46.804 13.697 46.755 13.817 46.723 13.955C46.690 14.092 46.674 14.230 46.674 14.367C46.674 14.505 46.690 14.642 46.723 14.763C46.755 14.900 46.804 15.020 46.870 15.124C46.935 15.227 47.033 15.313 47.131 15.381C47.246 15.450 47.376 15.484 47.540 15.484C47.703 15.484 47.834 15.450 47.948 15.381C48.062 15.313 48.144 15.227 48.209 15.124C48.275 15.020 48.324 14.900 48.356 14.763C48.389 14.625 48.405 14.505 48.405 14.367C48.405 14.230 48.389 14.092 48.356 13.955C48.324 13.817 48.275 13.697 48.209 13.594C48.144 13.491 48.046 13.405 47.948 13.336C47.834 13.267 47.703 13.233 47.540 13.233ZM51.632 16.000L50.325 13.977L50.274 13.977L50.257 14.009L50.257 16.000L49.663 16.000L49.663 13.061L50.308 13.061L51.632 15.069L51.683 15.069L51.700 15.036L51.700 13.061L52.277 13.061L52.277 16.000L51.632 16.000ZM52.931 16.000L52.931 13.061L54.213 13.061C54.408 13.061 54.587 13.093 54.749 13.158C54.911 13.222 55.058 13.302 55.171 13.431C55.285 13.543 55.382 13.704 55.447 13.880C55.512 14.057 55.545 14.282 55.545 14.523C55.545 14.731 55.512 14.940 55.463 15.117C55.415 15.293 55.317 15.454 55.220 15.582C55.106 15.711 54.976 15.823 54.798 15.888C54.635 15.968 54.424 16.000 54.213 16.000L52.931 16.000L52.931 16.000ZM53.531 15.502L54.165 15.502C54.262 15.502 54.359 15.486 54.457 15.454C54.554 15.422 54.635 15.374 54.717 15.293C54.798 15.213 54.846 15.117 54.895 15.004C54.944 14.892 54.960 14.747 54.960 14.571C54.960 14.410 54.944 14.282 54.911 14.153C54.879 14.025 54.830 13.912 54.765 13.832C54.700 13.736 54.603 13.671 54.489 13.623C54.376 13.575 54.230 13.559 54.067 13.559L53.531 13.559L53.531 15.502Z"/></svg>
