<?xml version="1.0" encoding="UTF-8"?>
<svg xmlns="http://www.w3.org/2000/svg" width="1200" height="675" viewBox="0 0 1200 675" role="img" aria-label="GGLBET providers atmosphere">

  <defs>
    <linearGradient id="providers-bg" x1="0%" y1="0%" x2="100%" y2="100%">
      <stop offset="0%" stop-color="#0a0b0d"/>
      <stop offset="27.1%" stop-color="#16181d"/>
      <stop offset="100%" stop-color="#0a0b0d"/>
    </linearGradient>
    <radialGradient id="providers-glow-p" cx="75.8%" cy="22.9%" r="55%">
      <stop offset="0%" stop-color="#ec008c" stop-opacity="0.55"/>
      <stop offset="45%" stop-color="#ec008c" stop-opacity="0.18"/>
      <stop offset="100%" stop-color="#ec008c" stop-opacity="0"/>
    </radialGradient>
    <radialGradient id="providers-glow-v" cx="70.8%" cy="66.2%" r="60%">
      <stop offset="0%" stop-color="#716ae7" stop-opacity="0.5"/>
      <stop offset="50%" stop-color="#716ae7" stop-opacity="0.14"/>
      <stop offset="100%" stop-color="#716ae7" stop-opacity="0"/>
    </radialGradient>
    <radialGradient id="providers-radial" cx="50%" cy="40%" r="70%">
      <stop offset="0%" stop-color="#1c1f28" stop-opacity="0.9"/>
      <stop offset="70%" stop-color="#16181d" stop-opacity="0.4"/>
      <stop offset="100%" stop-color="#0a0b0d" stop-opacity="0"/>
    </radialGradient>
    <linearGradient id="providers-shine" x1="0%" y1="0%" x2="0%" y2="100%">
      <stop offset="0%" stop-color="#ffffff" stop-opacity="0.12"/>
      <stop offset="40%" stop-color="#ffffff" stop-opacity="0.02"/>
      <stop offset="100%" stop-color="#ffffff" stop-opacity="0"/>
    </linearGradient>
    <linearGradient id="providers-chip" x1="0%" y1="0%" x2="100%" y2="100%">
      <stop offset="0%" stop-color="#ec008c" stop-opacity="0.85"/>
      <stop offset="50%" stop-color="#716ae7" stop-opacity="0.7"/>
      <stop offset="100%" stop-color="#ec008c" stop-opacity="0.4"/>
    </linearGradient>
    <filter id="providers-blur" x="-40%" y="-40%" width="180%" height="180%">
      <feGaussianBlur stdDeviation="19.4"/>
    </filter>
    <filter id="providers-soft" x="-20%" y="-20%" width="140%" height="140%">
      <feGaussianBlur stdDeviation="5.3"/>
    </filter>
    <pattern id="providers-noise" width="80" height="80" patternUnits="userSpaceOnUse">
      <circle cx="12" cy="18" r="0.8" fill="#fff" opacity="0.04"/>
      <circle cx="48" cy="32" r="0.6" fill="#fff" opacity="0.03"/>
      <circle cx="64" cy="58" r="0.7" fill="#ec008c" opacity="0.05"/>
      <circle cx="28" cy="62" r="0.5" fill="#716ae7" opacity="0.04"/>
    </pattern>
  </defs>
  <rect width="1200" height="675" fill="url(#providers-bg)"/>
  <rect width="1200" height="675" fill="url(#providers-radial)"/>
  <rect width="1200" height="675" fill="url(#providers-glow-p)"/>
  <rect width="1200" height="675" fill="url(#providers-glow-v)"/>
  <rect width="1200" height="675" fill="url(#providers-noise)"/>
  <line x1="88" y1="0" x2="88" y2="675" stroke="#ffffff" stroke-width="1" opacity="0.056706416044617076"/>
<line x1="176" y1="0" x2="176" y2="675" stroke="#ffffff" stroke-width="1" opacity="0.056706416044617076"/>
<line x1="264" y1="0" x2="264" y2="675" stroke="#ffffff" stroke-width="1" opacity="0.056706416044617076"/>
<line x1="352" y1="0" x2="352" y2="675" stroke="#ffffff" stroke-width="1" opacity="0.056706416044617076"/>
<line x1="440" y1="0" x2="440" y2="675" stroke="#ffffff" stroke-width="1" opacity="0.056706416044617076"/>
<line x1="528" y1="0" x2="528" y2="675" stroke="#ffffff" stroke-width="1" opacity="0.056706416044617076"/>
<line x1="616" y1="0" x2="616" y2="675" stroke="#ffffff" stroke-width="1" opacity="0.056706416044617076"/>
<line x1="704" y1="0" x2="704" y2="675" stroke="#ffffff" stroke-width="1" opacity="0.056706416044617076"/>
<line x1="792" y1="0" x2="792" y2="675" stroke="#ffffff" stroke-width="1" opacity="0.056706416044617076"/>
<line x1="880" y1="0" x2="880" y2="675" stroke="#ffffff" stroke-width="1" opacity="0.056706416044617076"/>
<line x1="968" y1="0" x2="968" y2="675" stroke="#ffffff" stroke-width="1" opacity="0.056706416044617076"/>
<line x1="1056" y1="0" x2="1056" y2="675" stroke="#ffffff" stroke-width="1" opacity="0.056706416044617076"/>
<line x1="1144" y1="0" x2="1144" y2="675" stroke="#ffffff" stroke-width="1" opacity="0.056706416044617076"/>
<line x1="0" y1="88" x2="1200" y2="88" stroke="#ffffff" stroke-width="1" opacity="0.04536513283569366"/>
<line x1="0" y1="176" x2="1200" y2="176" stroke="#ffffff" stroke-width="1" opacity="0.04536513283569366"/>
<line x1="0" y1="264" x2="1200" y2="264" stroke="#ffffff" stroke-width="1" opacity="0.04536513283569366"/>
<line x1="0" y1="352" x2="1200" y2="352" stroke="#ffffff" stroke-width="1" opacity="0.04536513283569366"/>
<line x1="0" y1="440" x2="1200" y2="440" stroke="#ffffff" stroke-width="1" opacity="0.04536513283569366"/>
<line x1="0" y1="528" x2="1200" y2="528" stroke="#ffffff" stroke-width="1" opacity="0.04536513283569366"/>
<line x1="0" y1="616" x2="1200" y2="616" stroke="#ffffff" stroke-width="1" opacity="0.04536513283569366"/>
  <circle cx="792.1" cy="48.1" r="91.9" fill="#ec008c" filter="url(#providers-blur)" opacity="0.30540477216709405"/>
  <circle cx="651.8" cy="425.1" r="258.3" fill="#716ae7" filter="url(#providers-blur)" opacity="0.33250416949158534"/>
  <circle cx="1188.0" cy="565.5" r="162.0" fill="#ec008c" filter="url(#providers-blur)" opacity="0.3935287473141216"/>
  <circle cx="192.5" cy="276.1" r="246.3" fill="#716ae7" filter="url(#providers-blur)" opacity="0.40916994551662356"/>
  <circle cx="613.6" cy="399.8" r="97.3" fill="#ec008c" filter="url(#providers-blur)" opacity="0.3623278005979955"/>
  <rect x="136" y="101.25" width="16" height="472.49999999999994" rx="4" fill="url(#providers-chip)" opacity="0.12"/>
  <path d="M 144.0 297.5 A 40 40 0 0 1 144.0 377.5" fill="none" stroke="#716ae7" stroke-width="2" stroke-linecap="round" opacity="0.35"/>
  <rect x="352" y="101.25" width="16" height="472.49999999999994" rx="4" fill="url(#providers-chip)" opacity="0.15"/>
  <path d="M 360.0 289.5 A 48 48 0 0 1 360.0 385.5" fill="none" stroke="#ec008c" stroke-width="2" stroke-linecap="round" opacity="0.35"/>
  <rect x="568" y="101.25" width="16" height="472.49999999999994" rx="4" fill="url(#providers-chip)" opacity="0.18"/>
  <path d="M 576.0 281.5 A 56 56 0 0 1 576.0 393.5" fill="none" stroke="#716ae7" stroke-width="2" stroke-linecap="round" opacity="0.35"/>
  <rect x="784" y="101.25" width="16" height="472.49999999999994" rx="4" fill="url(#providers-chip)" opacity="0.21"/>
  <path d="M 792.0 273.5 A 64 64 0 0 1 792.0 401.5" fill="none" stroke="#ec008c" stroke-width="2" stroke-linecap="round" opacity="0.35"/>
  <rect x="1000" y="101.25" width="16" height="472.49999999999994" rx="4" fill="url(#providers-chip)" opacity="0.24"/>
  <path d="M 1008.0 265.5 A 72 72 0 0 1 1008.0 409.5" fill="none" stroke="#716ae7" stroke-width="2" stroke-linecap="round" opacity="0.35"/>
  
  <g opacity="0.22">
    <circle cx="600" cy="337.5" r="60" fill="none" stroke="#fff" stroke-width="4.8"/>
    <circle cx="600" cy="337.5" r="43.199999999999996" fill="none" stroke="#fff" stroke-width="2.1" opacity="0.7"/>
    <circle cx="600" cy="337.5" r="27" fill="none" stroke="#fff" stroke-width="1" opacity="0.5"/>
    <circle cx="600.0" cy="284.7" r="4.8" fill="#fff" opacity="0.154"/><circle cx="637.3" cy="300.2" r="4.8" fill="#fff" opacity="0.154"/><circle cx="652.8" cy="337.5" r="4.8" fill="#fff" opacity="0.154"/><circle cx="637.3" cy="374.8" r="4.8" fill="#fff" opacity="0.154"/><circle cx="600.0" cy="390.3" r="4.8" fill="#fff" opacity="0.154"/><circle cx="562.7" cy="374.8" r="4.8" fill="#fff" opacity="0.154"/><circle cx="547.2" cy="337.5" r="4.8" fill="#fff" opacity="0.154"/><circle cx="562.7" cy="300.2" r="4.8" fill="#fff" opacity="0.154"/>
  </g>
  
  <g opacity="0.25">
    <circle cx="192.75842413678765" cy="173.54302001302128" r="30.25946236262098" fill="none" stroke="#716ae7" stroke-width="2.4"/>
    <circle cx="192.75842413678765" cy="173.54302001302128" r="21.786812901087103" fill="none" stroke="#716ae7" stroke-width="1.1" opacity="0.7"/>
    <circle cx="192.75842413678765" cy="173.54302001302128" r="13.616758063179441" fill="none" stroke="#716ae7" stroke-width="1" opacity="0.5"/>
    <circle cx="192.8" cy="146.9" r="2.4" fill="#716ae7" opacity="0.175"/><circle cx="211.6" cy="154.7" r="2.4" fill="#716ae7" opacity="0.175"/><circle cx="219.4" cy="173.5" r="2.4" fill="#716ae7" opacity="0.175"/><circle cx="211.6" cy="192.4" r="2.4" fill="#716ae7" opacity="0.175"/><circle cx="192.8" cy="200.2" r="2.4" fill="#716ae7" opacity="0.175"/><circle cx="173.9" cy="192.4" r="2.4" fill="#716ae7" opacity="0.175"/><circle cx="166.1" cy="173.5" r="2.4" fill="#716ae7" opacity="0.175"/><circle cx="173.9" cy="154.7" r="2.4" fill="#716ae7" opacity="0.175"/>
  </g>
  
  <g opacity="0.22">
    <circle cx="1079.8695692103356" cy="534.530128177721" r="32.37225560192019" fill="none" stroke="#ec008c" stroke-width="2.6"/>
    <circle cx="1079.8695692103356" cy="534.530128177721" r="23.308024033382534" fill="none" stroke="#ec008c" stroke-width="1.1" opacity="0.7"/>
    <circle cx="1079.8695692103356" cy="534.530128177721" r="14.567515020864084" fill="none" stroke="#ec008c" stroke-width="1" opacity="0.5"/>
    <circle cx="1079.9" cy="506.0" r="2.6" fill="#ec008c" opacity="0.154"/><circle cx="1100.0" cy="514.4" r="2.6" fill="#ec008c" opacity="0.154"/><circle cx="1108.4" cy="534.5" r="2.6" fill="#ec008c" opacity="0.154"/><circle cx="1100.0" cy="554.7" r="2.6" fill="#ec008c" opacity="0.154"/><circle cx="1079.9" cy="563.0" r="2.6" fill="#ec008c" opacity="0.154"/><circle cx="1059.7" cy="554.7" r="2.6" fill="#ec008c" opacity="0.154"/><circle cx="1051.4" cy="534.5" r="2.6" fill="#ec008c" opacity="0.154"/><circle cx="1059.7" cy="514.4" r="2.6" fill="#ec008c" opacity="0.154"/>
  </g>
  <text x="600" y="597.2253476468031" fill="#ffffff" font-family="Segoe UI, Helvetica Neue, Arial, sans-serif" font-size="30.375" font-weight="700" letter-spacing="8.5" opacity="0.12352840803563594" text-anchor="middle">GGLBET</text>
  <rect width="1200" height="270" fill="url(#providers-shine)" opacity="0.8"/>
  <rect width="1200" height="675" fill="none" stroke="#0a0b0d" stroke-width="48" opacity="0.45"/>
</svg>
